<?xml version="1.0" encoding="UTF-8"?>
<svg id="Layer_1" data-name="Layer 1" xmlns="http://www.w3.org/2000/svg" viewBox="0 0 3000 3000">
  <defs>
    <style>
      .cls-1 {
        fill: #424241;
      }

      .cls-2 {
        fill: currentColor;
      }
    </style>
  </defs>
  <g>
    <path class="cls-2" d="M1500.03,603.69c53.51,32.67,89.21,91.55,89.21,158.75s-35.7,126.15-89.21,158.82c-53.58-32.6-89.28-91.55-89.28-158.82s35.7-126.15,89.28-158.75"/>
    <path class="cls-2" d="M1262.47,863.44c60.94-14.72,127.8,1.58,175.4,49.18,47.53,47.53,63.9,114.45,49.18,175.4-60.94,14.79-127.87-1.58-175.46-49.18-47.53-47.53-63.97-114.45-49.11-175.4"/>
    <path class="cls-2" d="M1737.53,863.44c-60.94-14.72-127.8,1.58-175.4,49.18-47.53,47.53-63.9,114.45-49.18,175.4,60.94,14.79,127.87-1.58,175.46-49.18,47.53-47.53,63.97-114.45,49.11-175.4"/>
    <path class="cls-2" d="M1262.47,1091.19c60.94-14.72,127.8,1.58,175.4,49.18,47.53,47.53,63.9,114.45,49.18,175.4-60.94,14.79-127.87-1.58-175.46-49.18-47.53-47.53-63.97-114.45-49.11-175.4"/>
    <path class="cls-2" d="M1737.53,1091.19c-60.94-14.72-127.8,1.58-175.4,49.18-47.53,47.53-63.9,114.45-49.18,175.4,60.94,14.79,127.87-1.58,175.46-49.18,47.53-47.53,63.97-114.45,49.11-175.4"/>
    <path class="cls-2" d="M1262.47,1318.95c60.94-14.72,127.8,1.58,175.4,49.18,47.53,47.53,63.9,114.45,49.18,175.4-60.94,14.79-127.87-1.58-175.46-49.18-47.53-47.53-63.97-114.45-49.11-175.4"/>
    <path class="cls-2" d="M1737.53,1318.95c-60.94-14.72-127.8,1.58-175.4,49.18-47.53,47.53-63.9,114.45-49.18,175.4,60.94,14.79,127.87-1.58,175.46-49.18,47.53-47.53,63.97-114.45,49.11-175.4"/>
    <path class="cls-2" d="M1500.03,372.6c-394.95,0-715.14,320.18-715.14,715.13s320.18,715.14,715.14,715.14,715.07-320.18,715.07-715.14-320.12-715.13-715.07-715.13M1243.4,769.21l-155.24-155.24c110.12-95.95,254.22-154,411.87-154,346.73,0,627.78,281.12,627.78,627.78,0,157.58-58.12,301.68-154.07,411.87l-208.83-208.89-521.51-521.51ZM1762.72,1410.88l149.95,149.95c-110.33,96.3-254.63,154.62-412.63,154.62-346.74,0-627.85-280.98-627.85-627.71,0-157.99,58.47-302.3,154.76-412.63l207.24,207.17,528.53,528.6Z"/>
  </g>
  <g>
    <path class="cls-1" d="M968.6,2191.49c-17.33,0-33.43-2.75-48.28-8.32-14.86-5.5-27.72-13.41-38.45-23.66-10.8-10.25-19.26-22.35-25.31-36.25-6.05-13.96-9.08-29.3-9.08-46.01s3.03-32.05,9.08-46.01c6.05-13.89,14.58-26,25.45-36.25,10.87-10.25,23.8-18.16,38.72-23.66,14.99-5.57,31.36-8.32,49.18-8.32,20.7,0,39.2,3.44,55.5,10.39,16.37,6.88,29.85,16.78,40.51,29.78l-39.55,35.76c-7.5-8.12-15.61-14.24-24.35-18.36-8.67-4.06-18.36-6.12-29.03-6.12-9.42,0-17.95,1.51-25.72,4.4-7.7,2.96-14.31,7.15-19.74,12.72-5.5,5.57-9.7,12.1-12.72,19.81-3.03,7.63-4.54,16.23-4.54,25.86s1.51,17.68,4.54,25.45c3.03,7.7,7.22,14.37,12.72,19.88,5.43,5.57,11.97,9.84,19.6,12.86,7.63,3.1,16.03,4.61,25.24,4.61s18.23-1.51,27.03-4.61c8.73-3.02,17.68-8.18,26.62-15.47l34.87,43.6c-12.59,9.01-27.1,15.89-43.61,20.7-16.58,4.81-32.81,7.22-48.7,7.22M1060.9,2163.56l-54.95-8.18v-82.81h54.95v90.99Z"/>
    <polygon class="cls-1" points="1100.44 2187.1 1100.44 1967.42 1162.61 1967.42 1162.61 2137.79 1267.43 2137.79 1267.43 2187.1 1100.44 2187.1"/>
    <path class="cls-1" d="M1391.41,2191.49c-32.46,0-57.78-8.87-75.93-26.68-18.23-17.75-27.31-42.99-27.31-75.66v-121.74h62.11v119.88c0,18.84,3.72,32.33,11.14,40.51,7.43,8.12,17.61,12.24,30.6,12.24s23.11-4.13,30.47-12.24c7.29-8.18,11-21.67,11-40.51v-119.88h61.14v121.74c0,32.67-9.08,57.91-27.31,75.66-18.16,17.81-43.47,26.68-75.93,26.68"/>
    <polygon class="cls-1" points="1580.03 2187.1 1580.03 2016.67 1512.55 2016.67 1512.55 1967.42 1709.33 1967.42 1709.33 2016.67 1642.2 2016.67 1642.2 2187.1 1580.03 2187.1"/>
    <path class="cls-1" d="M1732.54,2187.07v-219.68h172.36v48.01h-110.8v123.66h114.86v48.01h-176.42ZM1789.7,2052.47h102v46.42h-102v-46.42Z"/>
    <polygon class="cls-1" points="1943.49 2187.1 1943.49 1967.42 1994.66 1967.42 2115.78 2113.65 2091.64 2113.65 2091.64 1967.42 2152.5 1967.42 2152.5 2187.1 2101.4 2187.1 1980.21 2040.81 2004.35 2040.81 2004.35 2187.1 1943.49 2187.1"/>
    <path class="cls-1" d="M851.76,2627.39v-346.92h272.09v75.79h-173.94v271.12h-98.15ZM942.96,2432.61h160.12v75.79h-160.12v-75.79Z"/>
    <path class="cls-1" d="M1169.99,2627.4v-346.92h155.1c50.55,0,89.48,11.49,116.72,34.46,27.31,22.9,40.92,54.27,40.92,93.88,0,26.14-6.26,48.7-18.84,67.68-12.59,18.98-30.33,33.5-53.3,43.6-22.9,10.11-50.28,15.13-81.99,15.13h-104.13l43.67-41.13v133.29h-98.15ZM1268.13,2504.49l-43.67-45.12h98.15c20.49,0,35.76-4.47,45.87-13.34,10.04-8.94,15.13-21.32,15.13-37.21s-5.09-28.75-15.13-37.69c-10.11-8.87-25.38-13.34-45.87-13.34h-98.15l43.67-45.12v191.82ZM1384.58,2627.4l-86.25-126.34h104.61l86.73,126.34h-105.09Z"/>
    <path class="cls-1" d="M1536.73,2627.39v-346.92h272.09v75.79h-174.97v195.33h181.44v75.79h-278.56ZM1626.9,2414.79h161.08v73.32h-161.08v-73.32Z"/>
    <path class="cls-1" d="M1869.76,2627.39v-346.92h272.16v75.79h-174.97v195.33h181.37v75.79h-278.55ZM1959.99,2414.79h161.08v73.32h-161.08v-73.32Z"/>
  </g>
</svg>