<?xml version="1.0" encoding="UTF-8"?>
<svg id="Layer_1" data-name="Layer 1" xmlns="http://www.w3.org/2000/svg" viewBox="0 0 3000 3000">
  <defs>
    <style>
      .cls-1 {
        fill: #424241;
      }

      .cls-2 {
        fill: currentColor;
      }
    </style>
  </defs>
  <g>
    <path class="cls-2" d="M1499.97,372.63c394.26,0,715.07,320.8,715.07,715.07s-320.8,715.14-715.07,715.14-715-320.8-715-715.14,320.73-715.07,715-715.07M1499.97,1682.39c327.89,0,594.7-266.74,594.7-594.7s-266.81-594.63-594.7-594.63-594.56,266.74-594.56,594.63,266.67,594.7,594.56,594.7"/>
    <path class="cls-2" d="M1749.72,669.87c-.83,3.78,11.56,90.38-123.6,229.32-187.78,193.07-136.46,376.66-69.88,462.98-19.4,17.68-78.69,67.27-80.61,68.51-8.87-37.42-16.51-68.09-29.85-100.08-45.4-109.16-89.9-186.75-271.07-222.86,178.63,14.17,254.15,79.86,297.9,213.16,10.39-125.32-8.19-244.8-216.32-289.92-176.43-38.31-194.93-98.43-197.68-102.21-.55,4.2-25.17,193.9,73.12,337.45,52.34,75.8,185.51,153.32,300.1,108.88,10.8,32.33,12.45,62.32,17.81,88.04,8.25,39.55,29.78,6.74,49.45-10.87,33.77-30.2,83.16-70.91,114.04-100.77,74.77-72.15,172.58-221.27,166.04-409.19,31.36,192.18-54.48,380.64-160.54,449.77,231.32-55.44,299.48-205.38,292.33-354.23-11.28-234.82-159.78-366.06-161.23-367.99"/>
  </g>
  <g>
    <g>
      <polygon class="cls-1" points="771.88 2620.85 632.84 2295.38 732.32 2295.38 849.51 2577.17 790.95 2577.17 910.91 2295.38 1002 2295.38 862.56 2620.85 771.88 2620.85"/>
      <path class="cls-1" d="M1021.53,2620.85v-325.47h255.28v71.14h-164.12v183.19h170.2v71.14h-261.36ZM1106.14,2421.36h151.14v68.84h-151.14v-68.84Z"/>
      <path class="cls-1" d="M1496.73,2627.37c-25.74,0-49.59-4.13-71.61-12.34-21.96-8.2-40.97-19.89-56.91-35.07-16-15.23-28.46-33.12-37.43-53.72-8.97-20.6-13.52-43.33-13.52-68.13s4.55-47.47,13.52-68.13c8.97-20.6,21.55-38.49,37.67-53.66,16.12-15.23,35.25-26.92,57.38-35.13,22.2-8.21,46.46-12.34,72.79-12.34,30.7,0,58.09,5.14,82.3,15.35,24.15,10.21,44.16,24.97,59.98,44.16l-58.57,53.02c-11.16-12.04-23.2-21.14-36.07-27.16-12.87-6.08-27.16-9.09-42.98-9.09-13.99,0-26.69,2.19-38.14,6.5-11.45,4.37-21.25,10.63-29.28,18.83-8.09,8.21-14.35,18.01-18.83,29.28-4.49,11.33-6.73,24.15-6.73,38.37s2.24,26.21,6.73,37.67c4.49,11.45,10.74,21.31,18.83,29.52,8.03,8.21,17.71,14.58,29.05,19.07,11.34,4.49,23.79,6.73,37.43,6.73s26.98-2.24,39.97-6.73c13.05-4.49,26.21-12.16,39.55-23.02l51.6,64.64c-18.6,13.34-40.15,23.56-64.65,30.7-24.5,7.14-48.47,10.69-72.09,10.69M1633.46,2585.98l-81.35-12.1v-122.74h81.35v134.84Z"/>
      <path class="cls-1" d="M1653,2620.85l143.7-325.47h90.62l144.17,325.47h-95.82l-112.52-280.37h36.31l-112.52,280.37h-93.93ZM1731.58,2557.62l23.67-67.89h159.05l23.73,67.89h-206.45Z"/>
      <polygon class="cls-1" points="2057.51 2620.85 2057.51 2295.38 2133.31 2295.38 2312.78 2512.05 2276.95 2512.05 2276.95 2295.38 2367.16 2295.38 2367.16 2620.85 2291.41 2620.85 2111.94 2404.19 2147.71 2404.19 2147.71 2620.85 2057.51 2620.85"/>
    </g>
    <g>
      <polygon class="cls-1" points="632.84 2206.4 632.84 1962.99 689.55 1962.99 823.74 2125.06 796.97 2125.06 796.97 1962.99 864.45 1962.99 864.45 2206.4 807.74 2206.4 673.47 2044.32 700.32 2044.32 700.32 2206.4 632.84 2206.4"/>
      <path class="cls-1" d="M879.07,2206.4l107.51-243.41h67.74l107.85,243.41h-71.67l-84.16-209.71h27.11l-84.16,209.71h-70.22ZM937.83,2159.11l17.7-50.8h118.97l17.79,50.8h-154.46Z"/>
      <polygon class="cls-1" points="1228.58 2206.4 1228.58 2017.56 1153.83 2017.56 1153.83 1962.99 1371.84 1962.99 1371.84 2017.56 1297.43 2017.56 1297.43 2206.4 1228.58 2206.4"/>
      <path class="cls-1" d="M1505.06,2211.26c-35.92,0-64.06-9.83-84.16-29.59-20.18-19.67-30.28-47.64-30.28-83.82v-134.87h68.85v132.82c0,20.87,4.11,35.83,12.4,44.9,8.21,8.98,19.5,13.51,33.87,13.51s25.57-4.53,33.7-13.51c8.13-9.07,12.23-24.03,12.23-44.9v-132.82h67.82v134.87c0,36.18-10.09,64.14-30.28,83.82-20.18,19.76-48.24,29.59-84.16,29.59"/>
      <path class="cls-1" d="M1661.17,2206.4v-243.41h108.87c35.49,0,62.78,8.04,81.93,24.12,19.07,16.16,28.65,38.06,28.65,65.94,0,18.3-4.36,34.13-13.26,47.47-8.81,13.34-21.21,23.52-37.37,30.62-16.08,7.01-35.24,10.6-57.56,10.6h-72.95l30.53-28.91v93.56h-68.85ZM1730.02,2120.1l-30.53-31.56h68.76c14.45,0,25.14-3.16,32.24-9.41,7.01-6.24,10.6-14.97,10.6-26.09s-3.59-20.18-10.6-26.43c-7.1-6.24-17.79-9.41-32.24-9.41h-68.76l30.53-31.64v134.53ZM1811.79,2206.4l-60.55-88.69h73.38l60.89,88.69h-73.72Z"/>
      <path class="cls-1" d="M1884.47,2206.4l107.51-243.41h67.74l107.85,243.41h-71.67l-84.16-209.71h27.11l-84.16,209.71h-70.22ZM1943.23,2159.11l17.7-50.8h118.97l17.79,50.8h-154.46Z"/>
      <polygon class="cls-1" points="2182.16 2206.4 2182.16 1962.99 2251.01 1962.99 2251.01 2151.83 2367.16 2151.83 2367.16 2206.4 2182.16 2206.4"/>
    </g>
  </g>
</svg>