<?xml version="1.0" encoding="UTF-8"?>
<svg id="Layer_1" data-name="Layer 1" xmlns="http://www.w3.org/2000/svg" viewBox="0 0 3000 3000">
  <defs>
    <style>
      .cls-1 {
        fill: #cc1f39;
      }

      .cls-2 {
        fill: #fff;
      }
    </style>
  </defs>
  <circle class="cls-1" cx="1500" cy="1500" r="978.11"/>
  <g id="Stop_watch-3" data-name="Stop watch-3">
    <path class="cls-2" d="M1580.21,2021.35c243.66,0,441.18-197.52,441.18-441.18s-197.52-441.18-441.18-441.18-441.18,197.52-441.18,441.18c.28,243.54,197.64,440.9,441.18,441.18ZM1560.15,1180.12v59.14c0,11.08,8.98,20.05,20.05,20.05s20.05-8.98,20.05-20.05v-59.14c205.38,10.45,369.54,174.61,379.99,379.99h-79.19c-11.08,0-20.05,8.98-20.05,20.05s8.98,20.05,20.05,20.05h79.19c-10.45,205.38-174.62,369.54-379.99,379.99v-59.14c0-11.08-8.98-20.05-20.05-20.05s-20.05,8.98-20.05,20.05v59.14c-205.38-10.45-369.54-174.62-379.99-379.99h59.14c11.08,0,20.05-8.98,20.05-20.05s-8.98-20.05-20.05-20.05h-59.14c10.45-205.38,174.61-369.54,379.99-379.99Z"/>
    <path class="cls-2" d="M2012.72,1289.39l49.51-49.51c7.83-7.83,7.83-20.52,0-28.36l-113.3-113.3c-7.83-7.83-20.52-7.83-28.36,0l-49.59,49.43c-80.22-54.16-174-84.77-270.72-88.38v-120.82h140.37c11.08,0,20.05-8.98,20.05-20.05s-8.98-20.05-20.05-20.05h-320.86c-11.08,0-20.05,8.98-20.05,20.05s8.98,20.05,20.05,20.05h140.37v121c-178.85,6.83-341.66,105.01-431.15,260.01h-110.29c-11.08,0-20.05,8.98-20.05,20.05s8.98,20.05,20.05,20.05h120.32c.52,0,.96-.26,1.48-.3,7.23.09,13.93-3.75,17.51-10.03,127.59-233.18,420.05-318.79,653.23-191.2,233.18,127.59,318.79,420.05,191.2,653.23-127.59,233.18-420.05,318.79-653.23,191.2-80.69-44.15-147.05-110.5-191.2-191.2-3.54-6.31-10.23-10.18-17.47-10.13-.52,0-.98-.3-1.52-.3h-120.32c-11.08,0-20.05,8.98-20.05,20.05s8.98,20.05,20.05,20.05h110.29c143.91,249.28,462.65,334.69,711.93,190.78,249.28-143.91,334.69-462.65,190.78-711.93-5.98-10.36-12.31-20.51-18.99-30.43ZM1903.71,1171.8l31.04-31.04,84.95,84.95-31.04,31.04c-24.98-31.49-53.48-60.02-84.95-85.03v.08Z"/>
    <path class="cls-2" d="M1098.92,1580.17c0-11.08-8.98-20.05-20.05-20.05h-160.43c-11.08,0-20.05,8.98-20.05,20.05s8.98,20.05,20.05,20.05h160.43c11.08,0,20.05-8.98,20.05-20.05Z"/>
    <path class="cls-2" d="M958.55,1479.9h140.37c11.08,0,20.05-8.98,20.05-20.05s-8.98-20.05-20.05-20.05h-140.37c-11.08,0-20.05,8.98-20.05,20.05s8.98,20.05,20.05,20.05Z"/>
    <path class="cls-2" d="M1118.97,1700.49c0-11.08-8.98-20.05-20.05-20.05h-140.37c-11.08,0-20.05,8.98-20.05,20.05s8.98,20.05,20.05,20.05h140.37c11.08,0,20.05-8.98,20.05-20.05Z"/>
    <path class="cls-2" d="M1525.92,1714.67c7.83,7.83,20.52,7.83,28.36,0l278.74-278.74c7.69-7.97,7.47-20.66-.49-28.36-7.77-7.51-20.09-7.51-27.86,0l-264.57,264.57-119.32-119.32c-7.97-7.69-20.66-7.47-28.36.49-7.51,7.77-7.51,20.09,0,27.86l133.5,133.5Z"/>
  </g>
</svg>