<?xml version="1.0" encoding="UTF-8"?>
<svg id="Layer_1" data-name="Layer 1" xmlns="http://www.w3.org/2000/svg" viewBox="0 0 3000 3000">
  <defs>
    <style>
      .cls-1 {
        fill: #fff;
      }

      .cls-2 {
        fill: #0a6034;
      }
    </style>
  </defs>
  <circle class="cls-2" cx="1500" cy="1500" r="978.11"/>
  <g>
    <g>
      <path class="cls-1" d="M1500.01,2108.66c-104.16,0-203.66-38.89-280.19-109.49-41.52-38.32-74.23-83.79-97.21-135.15-23.8-53.18-35.86-109.91-35.86-168.62,0-110.39,42.99-214.17,121.04-292.22,78.05-78.05,181.83-121.04,292.22-121.04s214.16,42.99,292.21,121.04c78.06,78.06,121.05,181.84,121.05,292.22,0,34.44-4.26,68.7-12.66,101.81-2.15,8.48-10.77,13.62-19.26,11.47-8.49-2.15-13.62-10.78-11.47-19.26,7.75-30.57,11.68-62.2,11.68-94.02,0-210.39-171.17-381.56-381.56-381.56s-381.56,171.17-381.56,381.56c0,54.22,11.14,106.59,33.1,155.67,21.22,47.42,51.42,89.41,89.77,124.8,70.65,65.19,162.52,101.09,258.69,101.09,62.73,0,124.91-15.55,179.82-44.98,7.72-4.14,17.33-1.23,21.46,6.49,4.13,7.72,1.23,17.33-6.49,21.46-59.5,31.88-126.86,48.73-194.8,48.73Z"/>
      <path class="cls-1" d="M1500,1691.99c-84.26,0-152.81-68.55-152.81-152.81s68.55-152.81,152.81-152.81,152.81,68.55,152.81,152.81-68.55,152.81-152.81,152.81ZM1500,1418.07c-66.78,0-121.11,54.33-121.11,121.11s54.33,121.11,121.11,121.11,121.11-54.33,121.11-121.11-54.33-121.11-121.11-121.11Z"/>
      <path class="cls-1" d="M1230.57,2003.37c-8.75,0-15.85-7.1-15.85-15.85v-69.87c0-115.25,93.76-209.01,209.01-209.01h152.53c65.14,0,125.41,29.57,165.34,81.14,5.36,6.92,4.09,16.88-2.83,22.24-6.92,5.36-16.88,4.09-22.24-2.83-33.88-43.75-85.01-68.85-140.27-68.85h-152.53c-97.77,0-177.3,79.54-177.3,177.3v69.87c0,8.75-7.1,15.85-15.85,15.85Z"/>
      <path class="cls-1" d="M1600.83,1221.71c-3.27,0-6.54-1.01-9.32-3.03l-91.51-66.49-91.51,66.49c-5.55,4.04-13.08,4.04-18.63,0-5.56-4.04-7.88-11.19-5.76-17.72l34.95-107.58-91.51-66.49c-5.56-4.04-7.88-11.19-5.76-17.72,2.12-6.53,8.21-10.95,15.08-10.95h113.11l34.95-107.58c2.12-6.53,8.21-10.95,15.08-10.95s12.95,4.42,15.08,10.95l34.95,107.58h113.11c6.87,0,12.95,4.42,15.08,10.95,2.12,6.53-.2,13.69-5.76,17.72l-91.51,66.49,34.95,107.58c2.12,6.53-.2,13.69-5.76,17.72-2.78,2.02-6.05,3.03-9.32,3.03ZM1385.65,1029.93l61.36,44.58c5.56,4.04,7.88,11.19,5.76,17.72l-23.44,72.13,61.36-44.58c5.55-4.04,13.08-4.04,18.63,0l61.36,44.58-23.44-72.13c-2.12-6.53.2-13.69,5.76-17.72l61.36-44.58h-75.84c-6.87,0-12.95-4.42-15.08-10.95l-23.44-72.13-23.44,72.13c-2.12,6.53-8.21,10.95-15.08,10.95h-75.84Z"/>
      <g>
        <path class="cls-1" d="M2015.82,1418.07c-3.27,0-6.54-1.01-9.32-3.03l-91.51-66.49-91.51,66.49c-5.55,4.04-13.08,4.04-18.63,0-5.56-4.04-7.88-11.19-5.76-17.72l34.95-107.57-91.51-66.49c-5.56-4.04-7.88-11.19-5.76-17.72,2.12-6.53,8.21-10.95,15.08-10.95h113.11l34.95-107.58c2.12-6.53,8.21-10.95,15.08-10.95s12.95,4.42,15.08,10.95l34.95,107.58h113.11c6.87,0,12.95,4.42,15.08,10.95,2.12,6.53-.2,13.69-5.76,17.72l-91.51,66.49,34.95,107.57c2.12,6.53-.2,13.69-5.76,17.72-2.78,2.02-6.05,3.03-9.32,3.03ZM1914.99,1313.11c3.27,0,6.54,1.01,9.32,3.03l61.36,44.58-23.44-72.13c-2.12-6.53.2-13.69,5.76-17.72l61.36-44.58h-75.84c-6.87,0-12.95-4.42-15.08-10.95l-23.44-72.13-23.44,72.13c-2.12,6.53-8.21,10.95-15.08,10.95h-75.84l61.36,44.58c5.56,4.04,7.88,11.19,5.76,17.72l-23.44,72.13,61.36-44.58c2.78-2.02,6.05-3.03,9.32-3.03Z"/>
        <path class="cls-1" d="M1185.84,1418.07c-3.27,0-6.54-1.01-9.32-3.03l-91.51-66.49-91.51,66.49c-5.55,4.04-13.08,4.04-18.63,0-5.56-4.04-7.88-11.19-5.76-17.72l34.95-107.57-91.51-66.49c-5.56-4.04-7.88-11.19-5.76-17.72,2.12-6.53,8.21-10.95,15.08-10.95h113.11l34.95-107.58c2.12-6.53,8.21-10.95,15.08-10.95s12.95,4.42,15.08,10.95l34.95,107.58h113.11c6.87,0,12.95,4.42,15.08,10.95,2.12,6.53-.2,13.69-5.76,17.72l-91.51,66.49,34.95,107.57c2.12,6.53-.2,13.69-5.76,17.72-2.78,2.02-6.05,3.03-9.32,3.03ZM1085.01,1313.11c3.27,0,6.54,1.01,9.32,3.03l61.36,44.58-23.44-72.13c-2.12-6.53.2-13.69,5.76-17.72l61.36-44.58h-75.84c-6.87,0-12.95-4.42-15.08-10.95l-23.44-72.13-23.44,72.13c-2.12,6.53-8.21,10.95-15.08,10.95h-75.84l61.36,44.58c5.56,4.04,7.88,11.19,5.76,17.72l-23.44,72.13,61.36-44.58c2.78-2.02,6.05-3.03,9.32-3.03Z"/>
      </g>
    </g>
    <path class="cls-1" d="M1812.86,2120.31c-99.16,0-179.83-80.67-179.83-179.83s80.67-179.83,179.83-179.83,179.83,80.67,179.83,179.83-80.67,179.83-179.83,179.83ZM1812.86,1792.35c-81.68,0-148.13,66.45-148.13,148.13s66.45,148.13,148.13,148.13,148.13-66.45,148.13-148.13-66.45-148.13-148.13-148.13Z"/>
    <path class="cls-1" d="M1768.79,2019.81c-4.2,0-8.24-1.67-11.21-4.64l-49.35-49.35c-6.19-6.19-6.19-16.23,0-22.42,6.19-6.19,16.23-6.19,22.42,0l38.14,38.15,127.78-127.79c6.19-6.19,16.23-6.19,22.42,0,6.19,6.19,6.19,16.23,0,22.42l-138.99,139c-2.97,2.97-7.01,4.64-11.21,4.64Z"/>
  </g>
</svg>