<?xml version="1.0" encoding="UTF-8"?>
<svg id="Layer_1" data-name="Layer 1" xmlns="http://www.w3.org/2000/svg" viewBox="0 0 3000 3000">
  <defs>
    <style>
      .cls-1 {
        fill: #fff;
      }

      .cls-2 {
        fill: #e0ad2c;
      }
    </style>
  </defs>
  <circle class="cls-2" cx="1500" cy="1500" r="978.11"/>
  <g>
    <path class="cls-1" d="M2011.05,1499.81c-2.4-100.88-83.88-196.52-164.73-247.77,48-39.86,68.8-56.77,95.29-117.81,8.63-18.1,26.56-59.48-6.95-61.76-11.07-.69-19.82,6.18-28.26,15.25-4.02,4.33-7.75,8.93-11.22,13.71-37.55,51.56-95.02,12.34-148.66,12.34,7.13-17.64,39.68-65.82,40.46-96.31.41-16.16-17.66-26.08-31.1-17.1-5.7,3.81-10.9,8.66-14.9,12.03-54.82,39.24-133,14.75-192.38,42.66,4.42-32.68,20.63-110.68,61.04-148.58,8.1-8.15,16.48-16.57,20.28-27.47,2.68-6.98,3.51-14.21,2.81-21.22-3.43-34.63-42.02-53.28-72.3-36.12-76.53,43.38-102.65,166.7-109.07,237.56-52.21-16.02-161.95-16.63-192.71-51.54-1.69-1.84-3.56-3.9-5.72-5.83-8.06-7.18-20.27-7.8-28.44-.75-25.42,21.95,19.31,86.65,30.98,112.62-54.18,1.58-120.63,31.06-158.76-20.57-4.04-4.99-8.37-10.34-13.16-14.34-7.33-6.12-17.85-7.23-25.84-1.99-41.86,27.45,64.49,163.24,93.63,169.75-37.5,19.53-69.15,43.41-94.16,71.02-25.09,27.71-43.56,59.25-54.89,93.75-12.86,39.13-16.48,81.68-10.78,126.48,5.61,44.12,20.16,89.58,43.24,135.12,27.85,54.96,105.47,190.49,199.91,310.04,50.21,63.56,97.59,112.96,140.82,146.84,46.64,36.54,88.59,55,124.93,54.99,3.96,0,7.85,0,11.69-.26,52.58-3.62,114.12-39.36,182.58-112.59,56.68-60.63,105.1-130.88,137.14-177.37l.25-.37c35.77-51.91,80.29-116.51,116.67-186.05,43.29-82.75,63.67-150.91,62.3-208.36ZM1876.55,1164.88c-20.34,24.72-45.23,46.15-71.61,64.98-46.79-19.39-91.55-28.57-140.19-28.7,15.38-16.02,45.05-43.18,70.96-44.07,44.21-11.12,91.04,27.5,140.83,7.8ZM1573.44,863.35c4.3-3.49,10.71-.36,10.59,5.17-.03,1.67-.72,3.26-1.9,4.45-52.62,53.27-78.82,145-79.22,216.45-3.56,5.09-6.81,10.16-9.61,14.64-6.34-71.32,21.19-192.87,80.13-240.7ZM1290.45,1071.42c56.32,17.54,102.16,13.82,161.18,33.14,5.57,27.68,13.33,105,52.77,93.88,18.18-5.13,15.79-35.12,18.15-51.98,12.45-80.2,135.85-58.53,199.47-76.51-20.83,50.59-98.42,97.59-125.46,139.88-34.05,2.66-53.86,9.04-69.84,14.17-78.73,29.16-214.36-80.54-248.15-156.14,4.01,1.14,7.99,2.36,11.88,3.55ZM1122.88,1162.92c57.01,11.88,71.29-2.51,123.19-5.83,48.25-3.09,67.45,29.4,100.94,53.47-46.12-3.84-95,.74-141.48,14.44-33.33-12.88-58.46-31.69-82.66-62.08ZM1925.92,1658.55c-29.35,60.78-68.5,120.9-94.41,160.68-70.02,107.5-162.21,238.5-254.37,297.83-69.77,44.91-116.05,25.79-187.48-30.95-88.26-72.31-182.67-195.19-280.61-365.23-25.58-44.41-51.83-91.68-67.05-138.37-24.98-76.66-8.62-168.58,40.72-228.71,52.41-63.87,138.96-101.74,227.94-101.74,27.68-.29,55.64,4.41,82.47,10.66,93.08,26.33,169.97-8.75,258.83-18.66,130.99-6.66,297.64,98.55,316.23,244.22,5.54,43.4-8.68,100.69-42.28,170.28Z"/>
    <path class="cls-1" d="M1265.51,1314.86l-.29.03-.28.09c-10.98,3.45-17.59,11.47-19.1,23.19-2.27,20.95,12.74,56.73,33.93,47.94,14.65-15.06,25.04-42.36,16.81-58.77-3.45-6.86-11.64-14.58-31.06-12.47Z"/>
    <path class="cls-1" d="M1721.06,1324.45c-37.89,4.2-23.62,72.46,6.49,72.6,26.56-12.78,35.07-75.2-6.49-72.6Z"/>
    <path class="cls-1" d="M1503,1373.4c-40.29,2.47-23.31,75.88,6.7,75.5,28.42-12.68,35.97-75.08-6.7-75.5Z"/>
    <path class="cls-1" d="M1151.41,1452.56c-36.27,6.97-20.63,69.54,6.32,73.78,2.05-.03,4.23-.56,5.88-1.88,22.98-23.09,38.14-75.29-12.2-71.9Z"/>
    <path class="cls-1" d="M1848.13,1493.18c-39.13,2.99-28.06,73.47,4.24,75.26,26.73-14,36.22-72.89-4.24-75.26Z"/>
    <path class="cls-1" d="M1358.16,1528.31c-37.77,4.74-17.7,80.62,11.53,77.78,20.09-23.06,39.78-78.98-11.53-77.78Z"/>
    <path class="cls-1" d="M1629.95,1534.34c-37.34,8.57-18.75,75.74,11.49,71.78,28.42-16.87,31.05-74.97-11.49-71.78Z"/>
    <path class="cls-1" d="M1218.05,1660c-38.55,10.99-20.01,68.28,5.96,74.22,2.58-.09,4.14-.77,5.45-1.84,21.68-22.06,36.78-75.01-11.4-72.38Z"/>
    <path class="cls-1" d="M1741.49,1685.18c-43.21,2.35-25.08,71.14,3.9,73.58,26.17-13.15,37.39-73.43-3.9-73.58Z"/>
    <path class="cls-1" d="M1496.49,1733.91c-9.26-23.37-47.07-23.73-51.99,5.1-3.43,20.41,10.53,57.11,32.99,52.83,17.11-14.02,25.85-40.72,18.99-57.93Z"/>
    <path class="cls-1" d="M1613.05,1845.22c-40.03,3.74-24.5,74.15,4.69,75.07,27.2-15.33,39.12-75.71-4.69-75.07Z"/>
    <path class="cls-1" d="M1332.32,1851.19c-37.76,6.58-23.2,69.5,5.32,75.98,1.12-.06,2.45-.04,3.36-.76,26.53-18.92,35.21-76.39-8.68-75.22Z"/>
    <path class="cls-1" d="M1506.02,1982.15c-42.53,2.49-27.61,71.65,3.85,73.01,25.7-15.33,37.02-71.51-3.85-73.01Z"/>
  </g>
</svg>