<?xml version="1.0" encoding="UTF-8"?>
<svg id="Layer_1" data-name="Layer 1" xmlns="http://www.w3.org/2000/svg" viewBox="0 0 3000 3000">
  <defs>
    <style>
      .cls-1 {
        fill: #424241;
      }

      .cls-2 {
        fill: #dc7f27;
      }
    </style>
  </defs>
  <g>
    <path class="cls-2" d="M1134.61,1180.41c.21-1.58,1.72-3.02,3.3-3.16,10.25-1.1,46.91-4.47,100.97-4.47s90.52,3.37,100.84,4.4c1.65.21,3.16,1.65,3.37,3.23,3.72,28.41,3.44,56.2-4.95,74.77-13.55,30.13-33.15,46.02-52.14,55.03-18.98,8.94-37.49,10.66-47.12,10.66s-28.2-1.72-47.19-10.66c-18.91-9.01-38.59-24.9-52.14-55.03-8.39-18.57-8.67-46.36-4.95-74.77"/>
    <path class="cls-2" d="M1228.79,1390.9c0,68.78.62,84.47-2.48,96.5-.89,3.23-1.92,6.19-3.3,8.8-.07.07-.14.14-.21.21-.21.34-.41.69-.48,1.1-1.93,3.37-4.54,6.19-7.98,8.32-.41.14-.82.41-1.1.62-3.02,1.72-6.67,2.96-11.07,3.72-12.59.89-22.97,2.34-30.33,4.06-3.71.82-6.67,1.79-9.01,2.89-1.17.62-2.2,1.24-3.1,2.13-.89.89-1.72,2.27-1.72,3.99,0,2.47,1.65,4.06,3.09,5.09,1.51,1.03,3.23,1.79,5.37,2.47,4.27,1.38,10.11,2.61,17.2,3.58,14.24,1.99,33.71,3.23,55.23,3.23s40.93-1.24,55.16-3.23c7.08-.96,12.86-2.2,17.13-3.58,2.2-.69,3.92-1.44,5.43-2.47,1.51-1.03,3.09-2.62,3.09-5.09,0-1.72-.89-3.1-1.79-3.99-.89-.89-1.86-1.51-3.02-2.13-2.34-1.1-5.3-2.06-9.01-2.89-7.36-1.72-17.75-3.16-30.4-4.06-4.33-.76-7.98-1.99-10.94-3.65-.34-.27-.76-.55-1.1-.69-3.44-2.13-6.05-4.95-7.98-8.25-.14-.41-.34-.82-.55-1.17-.07-.07-.14-.14-.21-.21-1.38-2.68-2.41-5.57-3.23-8.8-3.16-12.04-2.54-27.72-2.54-96.5,0-27.51,1.37-43.13,3.37-52.34,1.86-8.46,3.99-11.35,6.81-14.31,8.53-1.65,18.23-4.54,28.27-9.49,10.87-5.37,22.01-13.21,32.05-24.49,8.12-9.08,15.48-20.29,21.53-34.25,13.82-32.12,7.5-78.76-1.72-117.62-9.28-38.86-21.8-70.02-21.8-70.02-.48-1.17-1.51-1.99-2.75-2.2,0,0-39.41-5.5-75.8-5.5s-75.87,5.5-75.87,5.5c-1.24.21-2.27,1.03-2.75,2.2,0,0-12.52,31.16-21.8,70.02-9.22,38.86-15.55,85.5-1.72,117.62,6.05,13.96,13.41,25.17,21.53,34.25,10.04,11.28,21.18,19.12,32.05,24.49,9.97,4.95,19.74,7.84,28.27,9.42,2.75,3.03,4.95,5.92,6.81,14.38,2.06,9.22,3.37,24.83,3.37,52.34M1309.88,1290.27h-142.04c-9.29-9.15-17.88-21.18-24.69-37.07-12.52-28.96-7.02-74.84,2.06-113.15,8.87-37.21,20.15-65.34,20.84-66.99,2.13-.34,38.1-5.37,72.84-5.37s70.64,5.02,72.77,5.37c.69,1.65,11.97,29.78,20.84,66.99,9.08,38.31,14.58,84.19,2.06,113.15-6.81,15.89-15.41,27.92-24.69,37.07"/>
    <path class="cls-2" d="M1377.51,919.42c-.14.62-.21,1.24-.34,1.86.14-.62.21-1.24.34-1.86"/>
    <path class="cls-2" d="M1375.97,930.64c0,.41-.07.89-.14,1.31.07-.41.14-.89.14-1.31"/>
    <path class="cls-2" d="M1376.6,924.82c-.07.62-.14,1.24-.28,1.79.14-.55.21-1.17.28-1.79"/>
    <path class="cls-2" d="M1378.7,914.19c-.14.55-.28,1.03-.34,1.58.07-.55.21-1.03.34-1.58"/>
    <path class="cls-2" d="M1375.61,1043.54l266.12,250.51-.14-151.12-257.94-242.8c7.15-16.3,18.98-30.68,34.53-41.27,17.26-11.76,32.26-37.55,33.36-57.71,3.03-51.93,5.43-108.47,7.57-175.12-4.2-1.1-7.29-4.75-7.29-9.15v-14.24c0-1.58.41-3.1,1.17-4.4,1.37-2.61,4.06-4.47,7.29-4.95.07-3.78.27-6.4.34-10.32.21-7.43,6.74-13.48,14.58-13.48h66.72c7.84,0,14.37,6.05,14.58,13.48.07,3.71.21,6.67.34,10.32,4.82.69,8.46,4.61,8.46,9.36v14.24c0,4.4-3.17,8.12-7.43,9.15,2.54,78,5.37,134.81,7.7,175.12,1.17,20.15,16.16,45.95,33.36,57.71,26.69,18.16,42.51,47.39,42.51,78.62l.48,565.74c0,22.22-18.78,42.71-42.03,44.71-24.07,2-56.4,3.99-91.34,3.99s-67.27-1.99-91.34-3.99c-23.25-1.99-42.03-22.49-42.03-44.71l.41-459.68Z"/>
    <path class="cls-2" d="M1380.19,909.07q0,.07-.07.14t.07-.14"/>
    <path class="cls-2" d="M1382.73,902.23c-.28.62-.55,1.24-.76,1.86.21-.62.48-1.24.76-1.86"/>
    <path class="cls-2" d="M785.1,1100.7h0c4.33,180.97,78.48,360.22,221.21,494.62,285.52,268.74,739.35,257.8,1011.52-24.42,272.24-282.28,261.37-730.61-24.07-999.35-285.52-268.8-739.42-257.8-1011.59,24.42-136.12,141.14-201.46,323.76-197.06,504.73M1013.74,702.86l10.59-13.21,896.72,844.1-13.07,11.35c-113.29,98.15-257.94,151.8-408.43,151.8-3.78,0-7.5,0-11.28-.07-155.45-2.75-303.33-62.87-416.34-169.27-60.12-56.61-107.3-122.98-139.9-195.69-32.6-72.7-50.69-151.67-52.69-233.45-3.44-143,44.3-283.45,134.4-395.57M1986.26,1463.94l-10.59,13.21-896.72-844.1,13.07-11.35c116.17-100.56,265.23-154.42,419.78-151.67,155.45,2.75,303.33,62.87,416.34,169.21,113.08,106.48,180.97,249.54,191.28,402.93,10.25,152.49-37,302.23-133.16,421.78"/>
  </g>
  <g>
    <polygon class="cls-1" points="742.53 2335.8 742.53 2270.32 960.16 2011.97 972.82 2048.98 747.28 2048.98 747.28 1966.03 1065.81 1966.03 1065.81 2031.58 848.18 2289.85 835.53 2252.85 1073.72 2252.85 1073.72 2335.8 742.53 2335.8"/>
    <path class="cls-1" d="M1119.65,2335.83v-369.77h289.99v80.82h-186.4v208.07h193.28v80.89h-296.87ZM1215.81,2109.2h171.68v78.21h-171.68v-78.21Z"/>
    <path class="cls-1" d="M1474.68,2335.8v-369.77h165.28c53.93,0,95.4,12.24,124.43,36.73,29.1,24.49,43.61,57.85,43.61,100.08,0,27.86-6.74,51.86-20.09,72.08-13.41,20.29-32.33,35.77-56.81,46.5-24.42,10.8-53.58,16.17-87.42,16.17h-110.88l46.43-43.88v142.1h-104.55ZM1579.23,2204.77l-46.43-48.01h104.55c21.87,0,38.11-4.81,48.84-14.31,10.8-9.49,16.16-22.7,16.16-39.62s-5.37-30.61-16.16-40.1c-10.73-9.56-26.96-14.31-48.84-14.31h-104.55l46.43-48.08v204.42ZM1703.38,2335.8l-91.9-134.68h111.43l92.44,134.68h-111.98Z"/>
    <path class="cls-1" d="M2052.01,2343.16c-29.58,0-56.89-4.75-81.85-14.24-25.04-9.49-46.77-22.97-65.28-40.37-18.5-17.47-32.81-37.76-43.06-61.01-10.18-23.25-15.34-48.77-15.34-76.62s5.16-53.38,15.34-76.63c10.25-23.18,24.56-43.54,43.06-60.94,18.5-17.47,40.24-30.95,65.28-40.45,24.97-9.49,52.27-14.24,81.85-14.24s57.29,4.75,82.12,14.24c24.83,9.49,46.36,22.97,64.73,40.45,18.3,17.4,32.67,37.76,43.06,60.94,10.39,23.25,15.55,48.84,15.55,76.63s-5.16,53.44-15.55,76.9c-10.39,23.39-24.76,43.75-43.06,61.01-18.36,17.2-39.89,30.61-64.73,40.1-24.83,9.49-52.2,14.24-82.12,14.24M2052.01,2256.56c14.1,0,27.17-2.47,39.34-7.43,12.17-4.88,22.7-12.04,31.71-21.32,8.94-9.35,16.03-20.56,21.12-33.56,5.09-13.07,7.63-27.51,7.63-43.33s-2.55-30.68-7.63-43.54c-5.09-12.86-12.17-24.01-21.12-33.29-9.01-9.35-19.53-16.51-31.71-21.39-12.17-4.95-25.24-7.43-39.34-7.43s-27.17,2.48-39.35,7.43c-12.17,4.88-22.7,12.04-31.71,21.39-9.01,9.29-16.03,20.43-21.12,33.29-5.09,12.86-7.63,27.37-7.63,43.54s2.55,30.26,7.63,43.33c5.09,13,12.11,24.21,21.12,33.56,9.01,9.29,19.53,16.44,31.71,21.32,12.17,4.95,25.24,7.43,39.35,7.43"/>
    <path class="cls-1" d="M742.57,2619.06l89.28-202.43h56.4l89.62,202.43h-59.57l-69.95-174.36h22.56l-69.95,174.36h-58.4ZM791.4,2579.71l14.72-42.23h98.91l14.72,42.23h-128.35Z"/>
    <polygon class="cls-1" points="994.06 2619.04 994.06 2416.68 1051.28 2416.68 1051.28 2573.64 1147.86 2573.64 1147.86 2619.04 994.06 2619.04"/>
    <path class="cls-1" d="M1271.32,2623.08c-16.03,0-30.82-2.54-44.37-7.63-13.62-5.16-25.38-12.38-35.29-21.87-9.9-9.42-17.68-20.57-23.25-33.36-5.64-12.86-8.39-26.96-8.39-42.37s2.75-29.51,8.39-42.37c5.57-12.79,13.34-23.94,23.25-33.36,9.91-9.49,21.67-16.72,35.29-21.87,13.55-5.09,28.34-7.64,44.37-7.64,18.71,0,35.42,3.3,50.14,9.84,14.79,6.53,27.03,16.03,36.87,28.34l-36.45,32.95c-6.53-7.7-13.69-13.62-21.46-17.61-7.84-4.06-16.58-6.12-26.2-6.12-8.25,0-15.89,1.37-22.84,4.06-6.95,2.68-12.86,6.6-17.81,11.69-4.88,5.16-8.74,11.28-11.56,18.36-2.75,7.15-4.2,15.07-4.2,23.73s1.44,16.58,4.2,23.73c2.82,7.09,6.67,13.21,11.56,18.36,4.95,5.09,10.87,9.01,17.81,11.69,6.95,2.68,14.58,4.06,22.84,4.06,9.63,0,18.36-2.06,26.2-6.12,7.77-3.99,14.93-9.91,21.46-17.61l36.45,32.95c-9.84,12.17-22.08,21.53-36.87,28.2-14.72,6.67-31.43,9.97-50.14,9.97"/>
    <path class="cls-1" d="M1483.53,2623.05c-16.23,0-31.16-2.55-44.85-7.77-13.69-5.23-25.59-12.59-35.7-22.15-10.11-9.49-17.95-20.64-23.52-33.36-5.57-12.72-8.39-26.69-8.39-41.96s2.82-29.16,8.39-41.89c5.57-12.72,13.41-23.87,23.52-33.43,10.11-9.49,22.01-16.92,35.7-22.08,13.69-5.23,28.61-7.84,44.85-7.84s31.36,2.61,44.98,7.84c13.55,5.16,25.38,12.59,35.42,22.08,9.97,9.56,17.81,20.7,23.52,33.43,5.71,12.72,8.53,26.69,8.53,41.89s-2.82,29.3-8.53,42.1c-5.71,12.79-13.55,23.94-23.52,33.36-10.04,9.49-21.87,16.78-35.42,22.01-13.62,5.23-28.61,7.77-44.98,7.77M1483.53,2575.66c7.7,0,14.86-1.37,21.53-4.06,6.67-2.68,12.45-6.6,17.33-11.69,4.95-5.09,8.81-11.21,11.56-18.36,2.82-7.15,4.2-15.07,4.2-23.73s-1.37-16.78-4.2-23.8c-2.75-7.08-6.6-13.14-11.56-18.23-4.88-5.09-10.66-9.01-17.33-11.69-6.67-2.75-13.82-4.06-21.53-4.06s-14.86,1.31-21.53,4.06c-6.67,2.68-12.45,6.6-17.33,11.69-4.95,5.09-8.81,11.14-11.56,18.23-2.82,7.02-4.27,14.93-4.27,23.8s1.44,16.58,4.27,23.73c2.75,7.15,6.6,13.27,11.56,18.36,4.88,5.09,10.66,9.01,17.33,11.69,6.67,2.68,13.82,4.06,21.53,4.06"/>
    <path class="cls-1" d="M1626.03,2416.66h57.23v202.36h-57.23v-202.36ZM1679.27,2492.66h86.18v47.39h-86.18v-47.39ZM1761.4,2416.66h57.23v202.36h-57.23v-202.36Z"/>
    <path class="cls-1" d="M1961.16,2623.05c-16.23,0-31.16-2.55-44.85-7.77-13.69-5.23-25.59-12.59-35.7-22.15-10.11-9.49-17.95-20.64-23.52-33.36-5.57-12.72-8.39-26.69-8.39-41.96s2.82-29.16,8.39-41.89c5.57-12.72,13.41-23.87,23.52-33.43,10.11-9.49,22.01-16.92,35.7-22.08,13.69-5.23,28.61-7.84,44.85-7.84s31.36,2.61,44.98,7.84c13.55,5.16,25.38,12.59,35.42,22.08,9.97,9.56,17.81,20.7,23.52,33.43,5.71,12.72,8.53,26.69,8.53,41.89s-2.82,29.3-8.53,42.1c-5.71,12.79-13.55,23.94-23.52,33.36-10.04,9.49-21.87,16.78-35.42,22.01-13.62,5.23-28.61,7.77-44.98,7.77M1961.16,2575.66c7.7,0,14.86-1.37,21.53-4.06,6.67-2.68,12.45-6.6,17.33-11.69,4.95-5.09,8.81-11.21,11.56-18.36,2.82-7.15,4.2-15.07,4.2-23.73s-1.37-16.78-4.2-23.8c-2.75-7.08-6.6-13.14-11.56-18.23-4.88-5.09-10.66-9.01-17.33-11.69-6.67-2.75-13.82-4.06-21.53-4.06s-14.86,1.31-21.53,4.06c-6.67,2.68-12.45,6.6-17.33,11.69-4.95,5.09-8.81,11.14-11.56,18.23-2.82,7.02-4.27,14.93-4.27,23.8s1.44,16.58,4.27,23.73c2.75,7.15,6.6,13.27,11.56,18.36,4.88,5.09,10.66,9.01,17.33,11.69,6.67,2.68,13.82,4.06,21.53,4.06"/>
    <polygon class="cls-1" points="2103.67 2619.04 2103.67 2416.68 2160.89 2416.68 2160.89 2573.64 2257.47 2573.64 2257.47 2619.04 2103.67 2619.04"/>
  </g>
</svg>
